<svg width="143" height="155" viewBox="0 0 143 155" fill="none" xmlns="http://www.w3.org/2000/svg">
<circle cx="71.5" cy="77.5776" r="71.5" fill="#D9D9D9"/>
<mask id="mask0_474_2917" style="mask-type:luminance" maskUnits="userSpaceOnUse" x="0" y="0" width="143" height="155">
<path d="M143 0H0V154.619H143V0Z" fill="white"/>
</mask>
<g mask="url(#mask0_474_2917)">
<g filter="url(#filter0_d_474_2917)">
<path d="M85.4244 73.565L83.8753 71.0202C82.8725 71.6309 82.3219 72.7731 82.4691 73.938C82.6157 75.1022 83.4326 76.0723 84.5557 76.4149L85.4244 73.565ZM57.5806 73.565L58.4495 76.4149C59.5724 76.0723 60.3893 75.1022 60.5365 73.938C60.6831 72.7731 60.1325 71.6309 59.1297 71.0202L57.5806 73.565ZM95.3361 50.6457C95.3361 59.2733 90.7536 66.8333 83.8753 71.0202L86.9736 76.1098C95.5536 70.8867 101.294 61.438 101.294 50.6457H95.3361ZM71.5028 26.8123C84.6653 26.8123 95.3361 37.4829 95.3361 50.6457H101.294C101.294 34.1922 87.9561 20.854 71.5028 20.854V26.8123ZM47.6692 50.6457C47.6692 37.4829 58.3398 26.8123 71.5028 26.8123V20.854C55.0491 20.854 41.7109 34.1922 41.7109 50.6457H47.6692ZM59.1297 71.0202C52.2517 66.8333 47.6692 59.2733 47.6692 50.6457H41.7109C41.7109 61.438 47.4515 70.8867 56.0315 76.1098L59.1297 71.0202ZM56.7117 70.7151C37.9027 76.4506 23.7382 92.833 21.2469 112.852L27.1596 113.588C29.3558 95.9397 41.853 81.4753 58.4495 76.4149L56.7117 70.7151ZM21.2469 112.852C20.5884 118.143 24.9715 122.146 29.7942 122.146V116.187C28.0356 116.187 27.0052 114.828 27.1596 113.588L21.2469 112.852ZM29.7942 122.146H113.211V116.187H29.7942V122.146ZM113.211 122.146C118.034 122.146 122.417 118.143 121.758 112.852L115.845 113.588C116 114.828 114.969 116.187 113.211 116.187V122.146ZM121.758 112.852C119.267 92.833 105.102 76.4506 86.2932 70.7151L84.5557 76.4149C101.152 81.4753 113.649 95.9397 115.845 113.588L121.758 112.852Z" fill="#524A4A"/>
</g>
</g>
<defs>
<filter id="filter0_d_474_2917" x="-12.1523" y="20.854" width="167.31" height="167.958" filterUnits="userSpaceOnUse" color-interpolation-filters="sRGB">
<feFlood flood-opacity="0" result="BackgroundImageFix"/>
<feColorMatrix in="SourceAlpha" type="matrix" values="0 0 0 0 0 0 0 0 0 0 0 0 0 0 0 0 0 0 127 0" result="hardAlpha"/>
<feOffset dy="33.3333"/>
<feGaussianBlur stdDeviation="16.6667"/>
<feColorMatrix type="matrix" values="0 0 0 0 0 0 0 0 0 0 0 0 0 0 0 0 0 0 0.1 0"/>
<feBlend mode="normal" in2="BackgroundImageFix" result="effect1_dropShadow_474_2917"/>
<feBlend mode="normal" in="SourceGraphic" in2="effect1_dropShadow_474_2917" result="shape"/>
</filter>
</defs>
</svg>
