<svg width="54" height="79" viewBox="0 0 54 79" fill="none" xmlns="http://www.w3.org/2000/svg">
<path d="M46.6433 0H8.03067C4.08813 0 0.890625 3.11287 0.890625 6.94875V71.5129C0.890625 75.3488 4.08813 78.4615 8.03067 78.4615H46.6433C50.5837 78.4615 53.781 75.3488 53.781 71.5128V6.94875C53.781 3.11287 50.5837 0 46.6433 0ZM14.7429 67.4279H9.70569V62.524H14.7429V67.4279ZM14.7429 57.6202H9.70569V52.7163H14.7429V57.6202ZM14.7429 47.8125H9.70569V42.9087H14.7429V47.8125ZM14.7429 38.0048H9.70569V33.101H14.7429V38.0048ZM24.8172 67.4279H19.7801V62.524H24.8172V67.4279ZM24.8172 57.6202H19.7801V52.7163H24.8172V57.6202ZM24.8172 47.8125H19.7801V42.9087H24.8172V47.8125ZM24.8172 38.0048H19.7801V33.101H24.8172V38.0048ZM34.8916 67.4279H29.8544V62.524H34.8916V67.4279ZM34.8916 57.6202H29.8544V52.7163H34.8916V57.6202ZM34.8916 47.8125H29.8544V42.9087H34.8916V47.8125ZM34.8916 38.0048H29.8544V33.101H34.8916V38.0048ZM44.966 67.4279H39.9288V52.7163H44.966V67.4279ZM44.966 47.8125H39.9288V42.9087H44.966V47.8125ZM44.966 38.0048H39.9288V33.101H44.966V38.0048ZM44.966 24.5192H9.70569V11.0337H44.966V24.5192Z" fill="white"/>
</svg>
