<svg width="98" height="90" viewBox="0 0 98 90" fill="none" xmlns="http://www.w3.org/2000/svg">
<g clip-path="url(#clip0_311_111)">
<mask id="mask0_311_111" style="mask-type:luminance" maskUnits="userSpaceOnUse" x="0" y="0" width="98" height="90">
<path d="M98 0H0V90H98V0Z" fill="white"/>
</mask>
<g mask="url(#mask0_311_111)">
<path d="M1.00671 88.9041L0 85.2681H0.45092L1.21993 88.2303H1.25838L2.04137 85.2681H2.54123L3.32422 88.2303H3.36268L4.12819 85.2681H4.58261L3.5759 88.9041H3.11799L2.30704 86.008H2.27557L1.46462 88.9041H1.00671Z" fill="white"/>
<path d="M6.71875 88.9041V85.2681H8.93835V85.6589H7.16267V86.8893H8.82302V87.2796H7.16267V88.5138H8.96633V88.9041H6.71875Z" fill="white"/>
<path d="M11.3262 88.9038V85.2678H12.6125C12.831 85.2607 13.0481 85.3057 13.2452 85.399C13.4003 85.4761 13.5292 85.5963 13.6157 85.7448C13.6974 85.8946 13.7394 86.0624 13.7381 86.2321C13.7428 86.3658 13.714 86.4989 13.6542 86.6191C13.6023 86.7155 13.528 86.7984 13.4375 86.8614C13.3465 86.9187 13.2476 86.963 13.1438 86.9926V87.0273C13.2689 87.0344 13.3896 87.0755 13.4934 87.145C13.6115 87.2215 13.7087 87.3262 13.7765 87.449C13.8556 87.6001 13.8969 87.7679 13.8969 87.9382C13.8969 88.1079 13.8556 88.2757 13.7765 88.4268C13.6845 88.5804 13.5464 88.7013 13.3815 88.7727C13.1608 88.8659 12.9221 88.9089 12.6824 88.9006L11.3262 88.9038ZM11.7701 86.8679H12.5845C12.7056 86.8672 12.825 86.8402 12.9341 86.7888C13.0396 86.7406 13.1293 86.6634 13.1928 86.5677C13.2672 86.4545 13.3008 86.3195 13.2881 86.1858C13.2754 86.0515 13.2172 85.9254 13.1229 85.8277C12.9738 85.7043 12.7818 85.6439 12.588 85.6587H11.7701V86.8679ZM11.7701 88.5136H12.6544C12.8777 88.5367 13.1019 88.4776 13.2836 88.3477C13.3421 88.2963 13.3888 88.234 13.4207 88.1632C13.4527 88.0932 13.4691 88.0167 13.4689 87.9395C13.4706 87.818 13.4379 87.6984 13.3745 87.5943C13.3085 87.4869 13.2142 87.3995 13.1019 87.3417C12.9734 87.2767 12.8303 87.2446 12.6859 87.2485H11.7701V88.5136Z" fill="white"/>
<path d="M21.2984 88.9038H20.1624V85.2678H21.3508C21.6692 85.2588 21.9842 85.3334 22.2632 85.4857C22.5184 85.6297 22.7224 85.8483 22.8469 86.1112C22.9899 86.414 23.0594 86.7451 23.0497 87.0787C23.0593 87.4162 22.9899 87.7512 22.8469 88.0572C22.7181 88.3227 22.5093 88.5425 22.2492 88.6865C21.9568 88.8395 21.6291 88.9147 21.2984 88.9038ZM20.5993 88.5136H21.26C21.5228 88.5245 21.7838 88.4647 22.0149 88.3407C22.213 88.2262 22.3695 88.0533 22.4624 87.8463C22.6556 87.3565 22.6556 86.812 22.4624 86.3221C22.372 86.1177 22.2192 85.946 22.0255 85.831C21.8055 85.7107 21.5567 85.651 21.3054 85.6587H20.6237L20.5993 88.5136Z" fill="white"/>
<path d="M25.3809 88.9041V85.2681H27.6145V85.6589H25.8248V86.8893H27.4852V87.2796H25.8248V88.5138H27.6145V88.9041H25.3809Z" fill="white"/>
<path d="M33.1444 88.9041H32.676L34.0252 85.2681H34.4867L35.8359 88.9041H35.3675L34.256 85.8453L33.1444 88.9041ZM33.3157 87.4834H35.1962V87.8742H33.3157V87.4834Z" fill="white"/>
<path d="M37.9922 88.9041V85.2681H38.4501V88.5138H40.1594V88.9041H37.9922Z" fill="white"/>
<path d="M41.7305 85.6589V85.2681H44.4884V85.6589H43.3454V88.9041H42.898V85.6589H41.7305Z" fill="white"/>
<path d="M46.4905 88.9041H46.0256L47.3749 85.2681H47.8363L49.1856 88.9041H48.7172L47.6196 85.8453H47.5916L46.4905 88.9041ZM46.6653 87.4834H48.5459V87.8742H46.6653V87.4834Z" fill="white"/>
<path d="M54.7818 85.2681V88.9041H54.3379V85.2681H54.7818Z" fill="white"/>
<path d="M60.173 85.2681V88.9041H59.7396L57.7366 86.0665H57.7017V88.9214H57.2578V85.2681H57.6773L59.6872 88.1301H59.7222V85.2681H60.173Z" fill="white"/>
<path d="M64.6667 86.1769C64.6571 86.0927 64.6286 86.011 64.5833 85.9384C64.538 85.8664 64.4769 85.8047 64.4046 85.7584C64.2349 85.6549 64.0378 85.6028 63.8383 85.6099C63.6922 85.608 63.5471 85.635 63.4119 85.6896C63.2994 85.734 63.2015 85.8079 63.1287 85.9037C63.0617 85.9937 63.0261 86.103 63.0273 86.2148C63.0253 86.3029 63.0497 86.3897 63.0972 86.4636C63.1466 86.533 63.2096 86.5922 63.2825 86.6365C63.3551 86.6815 63.4324 86.7188 63.5132 86.7471C63.5971 86.7747 63.6705 86.7992 63.7405 86.8165L64.111 86.9168C64.2201 86.9451 64.3276 86.9792 64.4326 87.0203C64.5557 87.0653 64.673 87.1245 64.7821 87.1965C64.8917 87.2736 64.9838 87.3726 65.0513 87.487C65.1252 87.6188 65.1616 87.768 65.1564 87.919C65.1577 88.1074 65.1045 88.2925 65.0026 88.4513C64.8898 88.6165 64.7323 88.747 64.5479 88.828C64.0994 89.0067 63.5982 89.0067 63.1497 88.828C62.97 88.7547 62.8132 88.6352 62.6953 88.4822C62.585 88.3279 62.5208 88.146 62.51 87.957H62.9714C62.9759 88.0849 63.0254 88.207 63.1112 88.3028C63.1948 88.396 63.3023 88.4655 63.4223 88.5034C63.7047 88.596 64.0109 88.5902 64.2892 88.486C64.4156 88.4391 64.5267 88.3587 64.6108 88.254C64.6907 88.1569 64.7328 88.0341 64.7297 87.9087C64.7337 87.8007 64.6977 87.6947 64.6283 87.6111C64.5519 87.5333 64.4604 87.471 64.3592 87.4279C64.2458 87.3784 64.129 87.3372 64.0096 87.3038L63.5587 87.1759C63.3078 87.1135 63.0746 86.9952 62.877 86.83C62.794 86.7548 62.7285 86.6629 62.685 86.56C62.6416 86.4578 62.6212 86.3466 62.6253 86.2354C62.6213 86.0438 62.6802 85.8561 62.7932 85.6999C62.9099 85.5475 63.0655 85.428 63.244 85.354C63.445 85.2711 63.6607 85.228 63.8785 85.228C64.0963 85.228 64.312 85.2711 64.5129 85.354C64.6877 85.4299 64.8396 85.5488 64.9533 85.6999C65.0603 85.842 65.1201 86.0136 65.1246 86.191L64.6667 86.1769Z" fill="white"/>
<path d="M67.4629 88.9038V85.2678H68.7038C68.9465 85.2601 69.1873 85.3135 69.4028 85.4234C69.5787 85.5172 69.7214 85.6619 69.8123 85.838C69.9019 86.0187 69.9473 86.2173 69.9447 86.4185C69.9466 86.621 69.9012 86.821 69.8123 87.0029C69.7227 87.181 69.5799 87.3269 69.4028 87.4214C69.1879 87.532 68.9465 87.586 68.7038 87.577H67.8127V87.1861H68.6902C68.8544 87.1932 69.0179 87.1585 69.1652 87.0858C69.2788 87.0235 69.3703 86.9277 69.4274 86.8126C69.482 86.6885 69.5092 86.5542 69.5079 86.4185C69.5099 86.2842 69.4826 86.1511 69.4274 86.0283C69.371 85.9132 69.2795 85.8187 69.1652 85.7583C69.0153 85.6863 68.8498 85.6516 68.683 85.6587H67.8997V88.9038H67.4629Z" fill="white"/>
<path d="M72.7056 85.2681V88.9041H72.2617V85.2681H72.7056Z" fill="white"/>
<path d="M75.1523 88.9042V85.2682H76.3932C76.6347 85.2612 76.8742 85.3107 77.0922 85.4135C77.2662 85.5016 77.4089 85.6405 77.5011 85.8108C77.5913 85.9889 77.6367 86.1856 77.6341 86.3849C77.6374 86.5829 77.592 86.7783 77.5011 86.9551C77.4076 87.1229 77.2649 87.2585 77.0922 87.3453C76.8735 87.4456 76.634 87.4932 76.3932 87.4835H75.3899V87.1036H76.379C76.5419 87.11 76.7041 87.0817 76.8547 87.0207C76.9657 86.9699 77.0578 86.885 77.1169 86.779C77.174 86.6613 77.2013 86.5321 77.1974 86.4022C77.2013 86.2698 77.1734 86.138 77.1169 86.0185C77.0578 85.9079 76.9644 85.8198 76.8508 85.7658C76.7002 85.7002 76.5367 85.6694 76.3725 85.6758H75.6067V88.9216L75.1523 88.9042ZM76.8826 87.2727L77.788 88.9042H77.2707L76.379 87.2727H76.8826Z" fill="white"/>
<path d="M80.127 88.9041H79.6624L81.0116 85.2681H81.4731L82.8224 88.9041H82.3538L81.2563 85.8453H81.2284L80.127 88.9041ZM80.3023 87.4834H82.1824V87.8742H80.3023V87.4834Z" fill="white"/>
<path d="M87.7658 86.4121H87.3219C87.2992 86.2894 87.2531 86.1717 87.1856 86.0663C87.1207 85.9718 87.0402 85.8888 86.9474 85.8207C86.8539 85.7558 86.7501 85.7056 86.6398 85.6722C86.5262 85.6407 86.4087 85.624 86.2906 85.624C86.0771 85.6214 85.8674 85.6786 85.6857 85.7899C85.4994 85.912 85.3502 86.083 85.2561 86.2842C85.1438 86.5343 85.0899 86.8056 85.0984 87.0788C85.0906 87.3533 85.1438 87.6265 85.2561 87.8772C85.3495 88.0778 85.4981 88.2481 85.6857 88.3684C85.8668 88.4802 86.0771 88.5387 86.2906 88.5374C86.4087 88.5381 86.5268 88.5201 86.6398 88.486C86.7501 88.4539 86.8546 88.4037 86.9474 88.3375C87.0402 88.2706 87.1207 88.189 87.1856 88.0951C87.2518 87.9891 87.2979 87.8721 87.3219 87.7499H87.7658C87.7366 87.9254 87.6749 88.0939 87.5841 88.2475C87.4971 88.3909 87.3848 88.5175 87.2518 88.6204C87.12 88.7239 86.9708 88.8029 86.8111 88.8556C86.6417 88.909 86.4652 88.936 86.2867 88.9353C85.9921 88.9405 85.7019 88.8608 85.4514 88.7071C85.2016 88.5496 85.0017 88.3253 84.8751 88.0604C84.7284 87.7493 84.6564 87.4086 84.6648 87.0653C84.6557 86.7226 84.7278 86.3832 84.8751 86.0733C85.0017 85.8085 85.2016 85.5841 85.4514 85.4266C85.7019 85.273 85.9921 85.1939 86.2867 85.1984C86.4652 85.1984 86.6417 85.2248 86.8111 85.2781C86.9714 85.3296 87.1207 85.4093 87.2518 85.5134C87.3855 85.6143 87.4984 85.7397 87.5841 85.8831C87.6782 86.0463 87.7398 86.2257 87.7658 86.4121ZM86.1017 88.9251H86.4515L86.423 89.0697C86.5184 89.0845 86.6073 89.1237 86.6819 89.1841C86.7228 89.2234 86.754 89.2709 86.7741 89.3236C86.7942 89.3757 86.802 89.4323 86.7975 89.4882C86.7988 89.5615 86.7819 89.6335 86.7481 89.6984C86.715 89.7634 86.6657 89.8199 86.6054 89.8617C86.4386 89.9697 86.2406 90.0205 86.042 90.007V89.7299C86.1374 89.7344 86.2322 89.7151 86.3185 89.6746C86.3529 89.6611 86.3821 89.6373 86.4022 89.6065C86.4223 89.575 86.4321 89.539 86.4301 89.5023C86.434 89.4683 86.4275 89.4348 86.4113 89.4053C86.3951 89.3757 86.3698 89.3513 86.3393 89.3358C86.2452 89.2979 86.1446 89.2767 86.042 89.2741L86.1017 88.9251Z" fill="white"/>
<path d="M90.2186 88.9039H89.75L91.0993 85.2679H91.5607L92.91 88.9039H92.4453L91.344 85.8452H91.316L90.2186 88.9039ZM90.3899 87.4832H92.2805V87.874H90.4003L90.3899 87.4832ZM90.778 84.9085L90.4457 84.8912C90.4392 84.7292 90.4957 84.571 90.6028 84.4489C90.6508 84.393 90.7112 84.348 90.7787 84.3184C90.8468 84.2882 90.9202 84.274 90.9941 84.276C91.0558 84.274 91.1168 84.2862 91.1726 84.3107C91.2265 84.3312 91.2784 84.3582 91.3264 84.3897C91.3732 84.4193 91.4225 84.445 91.4731 84.4662C91.5283 84.49 91.588 84.5022 91.6483 84.5003C91.6808 84.501 91.7126 84.4945 91.7424 84.4817C91.7717 84.4682 91.7983 84.4489 91.8197 84.4245C91.8671 84.3711 91.8917 84.3017 91.8891 84.231L92.2143 84.2618C92.2221 84.4232 92.1656 84.5807 92.0572 84.7009C92.0072 84.7536 91.9475 84.7947 91.8807 84.823C91.8138 84.8507 91.7418 84.8648 91.6691 84.8635C91.5984 84.8661 91.5283 84.8545 91.4627 84.8288C91.4115 84.8089 91.3634 84.7819 91.3193 84.7491L91.1869 84.67C91.133 84.6462 91.0746 84.6347 91.0156 84.6353C90.9825 84.6347 90.95 84.6417 90.9208 84.6559C90.891 84.6694 90.865 84.69 90.8442 84.715C90.7994 84.7697 90.7754 84.8378 90.778 84.9085Z" fill="white"/>
<path d="M98.0003 87.1035C98.0088 87.4468 97.9374 87.7875 97.7907 88.0993C97.6635 88.3642 97.4636 88.5879 97.2137 88.7454C96.9606 88.8945 96.6712 88.9729 96.3765 88.9729C96.0819 88.9729 95.7924 88.8945 95.5393 88.7454C95.2894 88.5879 95.0896 88.3642 94.9623 88.0993C94.8163 87.7875 94.7443 87.4468 94.7527 87.1035C94.7436 86.7615 94.8157 86.4214 94.9623 86.1116C95.0896 85.8467 95.2894 85.6224 95.5393 85.4649C95.7924 85.3157 96.0819 85.2373 96.3765 85.2373C96.6712 85.2373 96.9606 85.3157 97.2137 85.4649C97.4636 85.6224 97.6635 85.8467 97.7907 86.1116C97.9374 86.4214 98.0094 86.7615 98.0003 87.1035ZM97.5668 87.1035C97.5752 86.8303 97.5214 86.5584 97.4097 86.3083C97.3169 86.1064 97.1677 85.9348 96.9795 85.8146C96.7984 85.7027 96.5881 85.6455 96.3746 85.6481C96.1617 85.6462 95.9521 85.704 95.7704 85.8146C95.5834 85.9361 95.4355 86.1071 95.344 86.3083C95.2284 86.5577 95.1733 86.8297 95.183 87.1035C95.1739 87.3787 95.2291 87.6512 95.344 87.9019C95.4348 88.1032 95.5828 88.2735 95.7704 88.3931C95.9514 88.5043 96.1611 88.5628 96.3746 88.5622C96.5888 88.5641 96.7984 88.5049 96.9795 88.3931C97.1683 88.2748 97.3182 88.1038 97.4097 87.9019C97.5214 87.6506 97.5752 87.378 97.5668 87.1035Z" fill="white"/>
<path d="M50.0275 55.2588L42.9945 75.9112H40.6665L34.5494 58.2832L28.4043 75.9112H26.1008L19.0608 55.2588H21.3224L27.3522 73.0184L33.5847 55.2588H35.654L41.8026 73.1084L47.9162 55.2588H50.0275Z" fill="white"/>
<path d="M71.5107 55.2588V75.9112H69.33V66.3815H56.2775V75.9112H54.0684V55.2588H56.2775V64.4632H69.3436V55.2588H71.5107Z" fill="white"/>
<path d="M78.3008 55.2588H80.5094V75.9112H78.3008V55.2588Z" fill="white"/>
<path d="M41.7925 16.3561C41.1618 16.3536 40.5576 16.1052 40.1111 15.6649L34.8958 10.646C34.4577 10.2011 34.2126 9.60445 34.2129 8.98338C34.2132 8.36232 34.4589 7.76594 34.8975 7.3214C35.3361 6.87687 35.933 6.61934 36.5608 6.60378C37.1887 6.58816 37.7979 6.81573 38.2585 7.2379L43.4738 12.2706C43.8164 12.6013 44.0514 13.0253 44.1491 13.4887C44.2467 13.9522 44.2025 14.4338 44.0221 14.8723C43.8417 15.3107 43.5332 15.686 43.1361 15.9503C42.739 16.2146 42.2712 16.3559 41.7925 16.3561Z" fill="url(#paint0_linear_311_111)"/>
<path d="M34.0985 46.1751C33.6269 46.1609 33.1699 46.01 32.7844 45.7411C32.3987 45.4723 32.1014 45.0974 31.9294 44.663C31.7574 44.2285 31.7182 43.7537 31.8168 43.2974C31.9153 42.8412 32.1472 42.4235 32.4836 42.0964L51.2265 23.9257C51.4521 23.7069 51.7191 23.5343 52.0122 23.4174C52.3053 23.3007 52.6188 23.2422 52.9348 23.2452C53.2508 23.2483 53.5631 23.3129 53.8538 23.4353C54.1446 23.5577 54.4082 23.7355 54.6294 23.9585C54.8507 24.1817 55.0253 24.4456 55.1434 24.7355C55.2614 25.0254 55.3206 25.3354 55.3175 25.6478C55.3144 25.9603 55.2491 26.269 55.1254 26.5566C55.0016 26.8441 54.8218 27.1047 54.5962 27.3234L35.8568 45.4977C35.6251 45.7221 35.35 45.8978 35.0478 46.0143C34.7456 46.1308 34.4226 46.1855 34.0985 46.1751Z" fill="url(#paint1_linear_311_111)"/>
<path d="M39.1292 41.3398C39.76 41.3401 40.3688 41.1099 40.8385 40.6934L35.8749 45.4807C35.5914 45.7588 35.2434 45.9641 34.8612 46.0787L34.7738 46.1028L34.7039 46.1201H34.6235H34.5361L34.4173 46.1374C34.3369 46.1374 34.253 46.1374 34.1726 46.1374C34.0922 46.1374 34.0153 46.1374 33.9384 46.1374H33.844H33.8055H33.7007L33.5679 46.1098L33.456 46.0752C33.3782 46.0533 33.3023 46.0255 33.2288 45.9923L33.1274 45.9507C32.9461 45.8646 32.7768 45.7554 32.6241 45.6258C32.5977 45.6088 32.5741 45.5878 32.5542 45.5636C32.5238 45.541 32.4957 45.5155 32.4703 45.4876C32.4142 45.4346 32.3616 45.378 32.313 45.3182C32.2153 45.1982 32.1288 45.0698 32.0543 44.9346C31.9517 44.7447 31.8742 44.5426 31.8236 44.3331C31.8236 44.302 31.8236 44.2709 31.8061 44.2432C31.8042 44.2157 31.8042 44.1879 31.8061 44.1603C31.8061 44.1188 31.8061 44.0808 31.8061 44.0393C31.8061 43.9979 31.8061 43.8803 31.8061 43.7974V6.68161C31.8061 6.59868 31.8061 6.51916 31.8061 6.43964C31.8061 6.36016 31.8061 6.36016 31.8061 6.31868C31.8048 6.28638 31.806 6.25403 31.8097 6.2219C31.8097 6.19424 31.8097 6.16659 31.8271 6.13548C31.8762 5.92505 31.9526 5.72175 32.0543 5.5306C32.1307 5.40846 32.2172 5.29285 32.313 5.18495C32.3607 5.12442 32.4134 5.06778 32.4703 5.01558C32.4957 4.98764 32.5238 4.96217 32.5542 4.93954C32.5739 4.91426 32.5975 4.89212 32.6241 4.87386C32.7779 4.74673 32.947 4.63877 33.1274 4.55241L33.2288 4.51093C33.3022 4.4765 33.3782 4.44761 33.456 4.42452L33.5679 4.39341L33.7007 4.3623H33.8055H33.844H33.9384C34.0153 4.3623 34.0922 4.3623 34.1726 4.3623C34.253 4.3623 34.3369 4.3623 34.4173 4.3623H34.5361H34.6235H34.7039L34.7738 4.37959L34.8612 4.40378C35.2439 4.51728 35.5921 4.72272 35.8749 5.00175L40.8385 9.78899C40.4719 9.46319 40.0178 9.24938 39.5311 9.17326C39.0443 9.09721 38.5456 9.16214 38.0953 9.36027C37.645 9.5584 37.2624 9.88124 36.9937 10.2898C36.7249 10.6983 36.5816 11.1751 36.581 11.6624V38.8235C36.581 39.1544 36.6469 39.482 36.7749 39.7878C36.903 40.0935 37.0908 40.3712 37.3273 40.6052C37.5639 40.8392 37.8449 41.0248 38.154 41.1515C38.4632 41.2781 38.7946 41.3432 39.1292 41.3432V41.3398Z" fill="#F89623"/>
<path d="M57.7881 29.8228C58.4187 29.8256 59.0227 30.074 59.4695 30.514L64.6673 35.5329C64.9031 35.7489 65.0926 36.0095 65.225 36.2992C65.3574 36.589 65.4294 36.9019 65.4378 37.2197C65.4456 37.5374 65.3892 37.8536 65.2723 38.1495C65.1549 38.4454 64.9783 38.7151 64.7539 38.9426C64.5294 39.1701 64.2611 39.3509 63.9649 39.4743C63.6687 39.5977 63.3504 39.6612 63.0289 39.661C62.7075 39.6608 62.3893 39.5971 62.0931 39.4734C61.797 39.3497 61.5289 39.1687 61.3046 38.941L56.1068 33.9083C55.7643 33.5776 55.5292 33.1535 55.4315 32.6902C55.3339 32.2267 55.378 31.745 55.5585 31.3066C55.739 30.8682 56.0474 30.4929 56.4446 30.2285C56.8417 29.9642 57.3094 29.8229 57.7881 29.8228Z" fill="url(#paint2_linear_311_111)"/>
<path d="M65.4813 -0.00010493C65.9538 0.0132184 66.4114 0.163682 66.7975 0.432518C67.1837 0.701353 67.4809 1.07666 67.6529 1.51163C67.8249 1.94659 67.8632 2.42197 67.7639 2.87845C67.664 3.33493 67.431 3.75232 67.0928 4.07855L48.3535 22.2528C47.894 22.6755 47.2859 22.9041 46.6585 22.89C46.0311 22.8759 45.434 22.6203 44.9944 22.1774C44.5548 21.7346 44.3073 21.1396 44.3047 20.5191C44.302 19.8985 44.5445 19.3015 44.9803 18.855L63.7232 0.691189C63.9536 0.464065 64.2282 0.285652 64.5305 0.166808C64.8327 0.0479641 65.1562 -0.00882529 65.4813 -0.00010493Z" fill="url(#paint3_linear_311_111)"/>
<path d="M67.8139 2.38481V39.4971C67.8139 39.5801 67.8139 39.6595 67.8139 39.7391C67.8139 39.8186 67.8139 39.8186 67.8139 39.86C67.8152 39.8888 67.8152 39.9176 67.8139 39.9464C67.8139 39.9706 67.8139 40.0052 67.7925 40.0328C67.7464 40.2431 67.6699 40.4456 67.5654 40.6343C67.4901 40.7667 67.4031 40.8927 67.3071 41.011C67.2577 41.0698 67.2052 41.1251 67.1493 41.1804L67.0656 41.2599L66.9955 41.3187C66.8417 41.4467 66.673 41.5558 66.4926 41.6436L66.3907 41.6885C66.3154 41.7203 66.2388 41.748 66.1603 41.7715L66.0519 41.8026C66.0064 41.8026 65.9643 41.8026 65.9156 41.8302H65.8143H65.7793C65.7468 41.832 65.7137 41.832 65.6813 41.8302C65.6034 41.8355 65.5249 41.8355 65.447 41.8302C65.3659 41.8354 65.2841 41.8354 65.2023 41.8302L65.0803 41.813C65.0524 41.8163 65.0239 41.8163 64.9966 41.813H64.9161H64.846L64.7586 41.7887C64.3764 41.6742 64.0283 41.4689 63.7449 41.1908L58.7812 36.4035C59.1478 36.7293 59.6019 36.9432 60.0887 37.0193C60.5756 37.0954 61.0742 37.0304 61.5245 36.8323C61.9748 36.6341 62.3574 36.3113 62.6261 35.9027C62.8948 35.4942 63.0382 35.0175 63.0388 34.5301V7.35867C63.039 6.871 62.8961 6.39369 62.6274 5.98472C62.3587 5.57575 61.9757 5.25268 61.525 5.05471C61.0742 4.85673 60.575 4.79236 60.088 4.8694C59.601 4.94644 59.147 5.16159 58.7812 5.48874L63.7064 0.691133C63.988 0.412898 64.337 0.210606 64.7201 0.103528L64.8075 0.0758759H64.8774L64.9577 0.0585938H65.042H65.164C65.2445 0.0585938 65.3282 0.0585938 65.4087 0.0585938C65.4892 0.0585938 65.5658 0.0585938 65.643 0.0585938H65.741H65.7761H65.8773L66.0136 0.0897018C66.0499 0.0991422 66.0863 0.110683 66.122 0.124267C66.2011 0.144643 66.2784 0.17242 66.3524 0.207223C66.3842 0.207223 66.4225 0.231418 66.4536 0.2487C66.6334 0.336582 66.8021 0.44443 66.9572 0.570154C66.9819 0.594349 67.0059 0.611632 67.0273 0.635827L67.1143 0.691133C67.1708 0.743037 67.2233 0.798458 67.272 0.857041C67.3687 0.975385 67.455 1.1014 67.5303 1.2338C67.6342 1.42274 67.7107 1.6252 67.7575 1.83523L67.7789 1.9251C67.7808 1.95386 67.7808 1.98275 67.7789 2.01151C67.7789 2.04953 67.7789 2.08755 67.7789 2.12903C67.7789 2.17051 67.8139 2.2984 67.8139 2.38481Z" fill="#1FAD90"/>
</g>
</g>
<defs>
<linearGradient id="paint0_linear_311_111" x1="35.0916" y1="7.72184" x2="45.397" y2="17.3425" gradientUnits="userSpaceOnUse">
<stop stop-color="#CC6517"/>
<stop offset="1" stop-color="#F89623"/>
</linearGradient>
<linearGradient id="paint1_linear_311_111" x1="31.7635" y1="34.7099" x2="55.3197" y2="34.7099" gradientUnits="userSpaceOnUse">
<stop stop-color="#CC6517"/>
<stop offset="1" stop-color="#F89623"/>
</linearGradient>
<linearGradient id="paint2_linear_311_111" x1="64.4856" y1="38.457" x2="54.18" y2="28.8399" gradientUnits="userSpaceOnUse">
<stop stop-color="#178E72"/>
<stop offset="1" stop-color="#1FAD90"/>
</linearGradient>
<linearGradient id="paint3_linear_311_111" x1="68.0125" y1="-0.000106897" x2="45.1374" y2="22.4092" gradientUnits="userSpaceOnUse">
<stop stop-color="#178E72"/>
<stop offset="1" stop-color="#1FAD90"/>
</linearGradient>
<clipPath id="clip0_311_111">
<rect width="98" height="90" fill="white"/>
</clipPath>
</defs>
</svg>
