<svg width="50" height="59" viewBox="0 0 50 59" fill="none" xmlns="http://www.w3.org/2000/svg">
<path d="M13.9077 20.899C13.0331 20.8958 12.1952 20.5784 11.576 20.0157L4.34358 13.6032C3.73597 13.0347 3.39612 12.2724 3.39648 11.4789C3.39693 10.6853 3.73759 9.92334 4.34583 9.35536C4.95407 8.78738 5.78182 8.45834 6.65251 8.43846C7.52328 8.4185 8.36805 8.70927 9.00689 9.24867L16.2393 15.6789C16.7143 16.1014 17.0403 16.6433 17.1758 17.2353C17.3112 17.8274 17.2499 18.4429 16.9997 19.0031C16.7494 19.5632 16.3217 20.0428 15.7709 20.3805C15.2202 20.7182 14.5715 20.8987 13.9077 20.899Z" fill="url(#paint0_linear_311_195)"/>
<path d="M3.23793 58.9987C2.58388 58.9805 1.95017 58.7877 1.41546 58.4442C0.880669 58.1007 0.468369 57.6217 0.229862 57.0666C-0.00864501 56.5115 -0.0630059 55.9048 0.073618 55.3219C0.210242 54.7389 0.531821 54.2053 0.998395 53.7874L26.9906 30.5707C27.3034 30.2912 27.6737 30.0706 28.0802 29.9214C28.4866 29.7722 28.9214 29.6975 29.3596 29.7013C29.7978 29.7053 30.2309 29.7877 30.6341 29.9441C31.0373 30.1005 31.4028 30.3277 31.7096 30.6127C32.0164 30.8978 32.2586 31.2351 32.4223 31.6054C32.5861 31.9758 32.6681 32.3718 32.6639 32.771C32.6596 33.1703 32.569 33.5648 32.3974 33.9322C32.2258 34.2995 31.9764 34.6325 31.6635 34.912L5.67619 58.1331C5.35497 58.4199 4.97336 58.6444 4.55431 58.7932C4.13525 58.942 3.6874 59.0119 3.23793 58.9987Z" fill="url(#paint1_linear_311_195)"/>
<path d="M10.2146 52.8201C11.0894 52.8205 11.9336 52.5264 12.585 51.9943L5.70159 58.1109C5.30846 58.4663 4.82578 58.7286 4.29585 58.8749L4.17461 58.9058L4.07768 58.9279H3.96617H3.84502L3.68023 58.95C3.56871 58.95 3.45234 58.95 3.34083 58.95C3.22941 58.95 3.12275 58.95 3.0161 58.95H2.88523H2.83186H2.68642L2.50227 58.9147L2.34711 58.8705C2.23929 58.8425 2.13398 58.807 2.03201 58.7645L1.89143 58.7115C1.63996 58.6014 1.40523 58.4619 1.19346 58.2964C1.15683 58.2746 1.12415 58.2477 1.09652 58.2169C1.0544 58.1879 1.01543 58.1554 0.98015 58.1198C0.902388 58.052 0.829489 57.9797 0.761987 57.9033C0.626623 57.75 0.506557 57.586 0.403324 57.4131C0.26103 57.1705 0.153478 56.9123 0.0833658 56.6447C0.0833658 56.6049 0.0833647 56.5651 0.059154 56.5298C0.0564539 56.4946 0.0564539 56.4591 0.059154 56.4239C0.059154 56.3709 0.059154 56.3223 0.059154 56.2693C0.059154 56.2163 0.059154 56.0662 0.059154 55.9601V8.53758C0.059154 8.43162 0.059154 8.33002 0.059154 8.22842C0.059154 8.12686 0.059154 8.12686 0.059154 8.07387C0.0573539 8.03259 0.0589754 7.99126 0.0640156 7.95021C0.0640156 7.91487 0.0640167 7.87955 0.0882274 7.8398C0.156359 7.57093 0.26229 7.31117 0.403324 7.06694C0.509167 6.91089 0.629143 6.76317 0.761987 6.62531C0.828229 6.54797 0.901218 6.4756 0.98015 6.40891C1.01543 6.3732 1.0544 6.34067 1.09652 6.31175C1.12388 6.27945 1.15665 6.25115 1.19346 6.22784C1.40676 6.06539 1.64122 5.92745 1.89143 5.81712L2.03201 5.76412C2.13389 5.72012 2.2392 5.68321 2.34711 5.65371L2.50227 5.61396L2.68642 5.57422H2.83186H2.88523H3.0161C3.12275 5.57422 3.22941 5.57422 3.34083 5.57422C3.45234 5.57422 3.56871 5.57422 3.68023 5.57422H3.84502H3.96617H4.07768L4.17461 5.59631L4.29585 5.62721C4.8265 5.77223 5.30945 6.03471 5.70159 6.39124L12.585 12.5079C12.0767 12.0916 11.4469 11.8184 10.7719 11.7211C10.0968 11.624 9.4052 11.7069 8.78077 11.9601C8.15633 12.2132 7.62576 12.6257 7.25306 13.1477C6.88036 13.6697 6.68163 14.2788 6.68073 14.9015V49.6051C6.68073 50.0278 6.77218 50.4465 6.94975 50.8371C7.12733 51.2277 7.38771 51.5826 7.71576 51.8816C8.04391 52.1806 8.43354 52.4177 8.86222 52.5795C9.29099 52.7412 9.75054 52.8245 10.2146 52.8245V52.8201Z" fill="#F89623"/>
<path d="M36.0898 38.105C36.9643 38.1086 37.8019 38.426 38.4215 38.9882L45.6296 45.4008C45.9566 45.6768 46.2194 46.0098 46.403 46.3799C46.5866 46.7501 46.6865 47.15 46.6982 47.556C46.709 47.962 46.6307 48.3659 46.4687 48.744C46.3058 49.1221 46.061 49.4666 45.7498 49.7573C45.4385 50.048 45.0664 50.2791 44.6556 50.4367C44.2448 50.5943 43.8034 50.6755 43.3576 50.6752C42.9118 50.675 42.4705 50.5936 42.0599 50.4355C41.6492 50.2775 41.2774 50.0462 40.9664 49.7553L33.7582 43.3251C33.2832 42.9025 32.9572 42.3607 32.8217 41.7686C32.6863 41.1765 32.7476 40.5611 32.9979 40.0009C33.2481 39.4407 33.6759 38.9612 34.2266 38.6234C34.7773 38.2858 35.4259 38.1052 36.0898 38.105Z" fill="url(#paint2_linear_311_195)"/>
<path d="M46.7598 0.00111368C47.415 0.0181368 48.0495 0.210383 48.5851 0.553873C49.1206 0.897362 49.5328 1.37689 49.7713 1.93265C50.0098 2.4884 50.0629 3.09578 49.9252 3.67903C49.7866 4.26227 49.4635 4.79556 48.9946 5.21239L23.0073 28.4335C22.3702 28.9735 21.5268 29.2656 20.6567 29.2476C19.7867 29.2296 18.9587 28.903 18.3491 28.3372C17.7394 27.7714 17.3962 27.0112 17.3926 26.2183C17.3889 25.4254 17.7251 24.6626 18.3295 24.0922L44.3217 0.884376C44.6412 0.594181 45.022 0.366223 45.4412 0.214378C45.8603 0.0625312 46.3089 -0.0100283 46.7598 0.00111368Z" fill="url(#paint3_linear_311_195)"/>
<path d="M49.9926 3.04885V50.467C49.9926 50.573 49.9926 50.6745 49.9926 50.7761C49.9926 50.8777 49.9926 50.8777 49.9926 50.9307C49.9944 50.9675 49.9944 51.0043 49.9926 51.0411C49.9926 51.072 49.9926 51.1162 49.9629 51.1515C49.899 51.4201 49.7928 51.6789 49.6479 51.92C49.5435 52.0891 49.4229 52.2502 49.2897 52.4013C49.2213 52.4765 49.1484 52.5471 49.071 52.6177L48.9549 52.7193L48.8577 52.7944C48.6444 52.958 48.4104 53.0973 48.1602 53.2095L48.0188 53.267C47.9144 53.3075 47.8082 53.3429 47.6993 53.3729L47.549 53.4127C47.486 53.4127 47.4275 53.4127 47.36 53.448H47.2196H47.171C47.126 53.4502 47.0801 53.4502 47.0351 53.448C46.9271 53.4547 46.8182 53.4547 46.7102 53.448C46.5977 53.4546 46.4843 53.4546 46.3709 53.448L46.2017 53.426C46.163 53.4302 46.1234 53.4302 46.0856 53.426H45.974H45.8767L45.7555 53.395C45.2255 53.2486 44.7428 52.9864 44.3497 52.631L37.4663 46.5144C37.9746 46.9306 38.6044 47.2039 39.2795 47.3011C39.9546 47.3983 40.6461 47.3153 41.2705 47.0621C41.895 46.809 42.4256 46.3965 42.7982 45.8745C43.1709 45.3525 43.3697 44.7434 43.3706 44.1207V9.40392C43.3708 8.78082 43.1727 8.17098 42.8 7.64843C42.4274 7.12589 41.8963 6.71311 41.2713 6.46016C40.6461 6.2072 39.9539 6.12496 39.2785 6.2234C38.6031 6.32183 37.9736 6.59672 37.4663 7.01472L44.2964 0.884851C44.687 0.529352 45.1709 0.270885 45.7022 0.134073L45.8234 0.0987414H45.9203L46.0316 0.0766602H46.1486H46.3178C46.4294 0.0766602 46.5455 0.0766602 46.6571 0.0766602C46.7687 0.0766602 46.8749 0.0766602 46.982 0.0766602H47.1179H47.1665H47.3069L47.4959 0.116407C47.5463 0.128469 47.5967 0.143215 47.6462 0.16057C47.756 0.186605 47.8631 0.222095 47.9657 0.266562C48.0098 0.266562 48.0629 0.297477 48.1061 0.319558C48.3555 0.431844 48.5895 0.56964 48.8046 0.730277C48.8388 0.761191 48.8721 0.783273 48.9018 0.814187L49.0224 0.884851C49.1007 0.951169 49.1736 1.02198 49.2411 1.09683C49.3752 1.24804 49.4949 1.40904 49.5993 1.57821C49.7433 1.81962 49.8495 2.07831 49.9143 2.34665L49.944 2.46148C49.9467 2.49823 49.9467 2.53514 49.944 2.57189C49.944 2.62046 49.944 2.66905 49.944 2.72204C49.944 2.77504 49.9926 2.93844 49.9926 3.04885Z" fill="#1FAD90"/>
<defs>
<linearGradient id="paint0_linear_311_195" x1="4.61503" y1="9.867" x2="17.8122" y2="23.2391" gradientUnits="userSpaceOnUse">
<stop stop-color="#CC6517"/>
<stop offset="1" stop-color="#F89623"/>
</linearGradient>
<linearGradient id="paint1_linear_311_195" x1="-0.000184302" y1="44.3497" x2="32.667" y2="44.3497" gradientUnits="userSpaceOnUse">
<stop stop-color="#CC6517"/>
<stop offset="1" stop-color="#F89623"/>
</linearGradient>
<linearGradient id="paint2_linear_311_195" x1="45.3776" y1="49.1369" x2="32.1799" y2="35.7693" gradientUnits="userSpaceOnUse">
<stop stop-color="#178E72"/>
<stop offset="1" stop-color="#1FAD90"/>
</linearGradient>
<linearGradient id="paint3_linear_311_195" x1="50.2699" y1="0.00111117" x2="21.0913" y2="31.0259" gradientUnits="userSpaceOnUse">
<stop stop-color="#178E72"/>
<stop offset="1" stop-color="#1FAD90"/>
</linearGradient>
</defs>
</svg>
